<svg id="Слой_1" data-name="Слой 1" xmlns="http://www.w3.org/2000/svg" viewBox="0 0 129.48 127.11"><defs><style>.cls-1{fill:#1f2c44;}</style></defs><title>faces</title><path class="cls-1" d="M57.47,60.41H50.31a1,1,0,0,1,0-2h7.16a1,1,0,0,1,0,2Z"/><path class="cls-1" d="M78.93,60.41H71.77a1,1,0,0,1,0-2h7.16a1,1,0,0,1,0,2Z"/><path class="cls-1" d="M73.4,74.62H56.08a1,1,0,1,1,0-2H73.4a1,1,0,0,1,0,2Z"/><path class="cls-1" d="M55.89,76.38a1,1,0,0,1-1-1V71.83a1,1,0,0,1,2,0v3.55A1,1,0,0,1,55.89,76.38Z"/><path class="cls-1" d="M73.79,76.38a1,1,0,0,1-1-1V71.83a1,1,0,0,1,2,0v3.55A1,1,0,0,1,73.79,76.38Z"/><path class="cls-1" d="M64.74,91.21A25.94,25.94,0,1,1,90.68,65.28,26,26,0,0,1,64.74,91.21Zm0-49.87A23.94,23.94,0,1,0,88.68,65.28,24,24,0,0,0,64.74,41.34Z"/><path class="cls-1" d="M64.71,67a3.34,3.34,0,0,1-3-1.89,1,1,0,1,1,1.8-.88,1.36,1.36,0,0,0,1.22.77A1.38,1.38,0,0,0,66,64.16a1,1,0,0,1,1.31-.53,1,1,0,0,1,.53,1.31A3.37,3.37,0,0,1,64.71,67Z"/></svg>