<svg id="Слой_1" data-name="Слой 1" xmlns="http://www.w3.org/2000/svg" viewBox="0 0 129.48 127.11"><defs><style>.cls-1{fill:#aebfd1;}</style></defs><title>faces</title><circle class="cls-1" cx="53.61" cy="57.69" r="2.06"/><circle class="cls-1" cx="75.26" cy="57.69" r="2.06"/><path class="cls-1" d="M64.71,65.28a3.35,3.35,0,0,1-3-1.89,1,1,0,0,1,1.8-.88A1.36,1.36,0,0,0,66,62.44a1,1,0,0,1,1.85.78A3.37,3.37,0,0,1,64.71,65.28Z"/><path class="cls-1" d="M53.15,60.7a7.65,7.65,0,0,1-5.61-2.36,1,1,0,0,1,.05-1.42A1,1,0,0,1,49,57a6,6,0,0,0,9.27-1.1,1,1,0,0,1,1.37-.36A1,1,0,0,1,60,56.87a7.82,7.82,0,0,1-5.7,3.75A9,9,0,0,1,53.15,60.7Z"/><path class="cls-1" d="M53.61,75.55a1,1,0,0,1-.59-.19A1,1,0,0,1,52.8,74a14.54,14.54,0,0,1,11.29-5.72,14.38,14.38,0,0,1,12,5.59A1,1,0,1,1,74.46,75a12.38,12.38,0,0,0-10.32-4.78,12.52,12.52,0,0,0-9.73,4.9A1,1,0,0,1,53.61,75.55Z"/><path class="cls-1" d="M75.45,60.75c-.31,0-.61,0-.92,0a7.76,7.76,0,0,1-6-3.89,1,1,0,1,1,1.75-1,6,6,0,0,0,9.25,1.23,1,1,0,0,1,1.42,0,1,1,0,0,1,0,1.41A7.75,7.75,0,0,1,75.45,60.75Z"/><path class="cls-1" d="M55.11,76.57a4,4,0,0,1-2.74-1.13,3.9,3.9,0,0,1-1.17-3.37.75.75,0,0,1,.86-.62.73.73,0,0,1,.62.85,2.4,2.4,0,0,0,.74,2.07,2.45,2.45,0,0,0,2,.69.73.73,0,0,1,.84.63.75.75,0,0,1-.64.85A3.91,3.91,0,0,1,55.11,76.57Z"/><path class="cls-1" d="M73.7,76.58a3.67,3.67,0,0,1-1.14-.18A.75.75,0,1,1,73,75a2.39,2.39,0,0,0,2.15-.4,2.45,2.45,0,0,0,1-1.85.79.79,0,0,1,.76-.73.74.74,0,0,1,.74.76,4,4,0,0,1-4,3.83Z"/><path class="cls-1" d="M64.74,89.49A25.94,25.94,0,1,1,90.68,63.55,26,26,0,0,1,64.74,89.49Zm0-49.87A23.94,23.94,0,1,0,88.68,63.55,24,24,0,0,0,64.74,39.62Z"/></svg>