<svg id="Слой_1" data-name="Слой 1" xmlns="http://www.w3.org/2000/svg" viewBox="0 0 129.48 127.11"><defs><style>.cls-1{fill:#1f2c44;}</style></defs><title>faces</title><circle class="cls-1" cx="53.94" cy="58.11" r="2.06"/><circle class="cls-1" cx="75.54" cy="57.95" r="2.06"/><path class="cls-1" d="M48.59,60.19a1.09,1.09,0,0,1-.39-.08,1,1,0,0,1-.52-1.32,7.84,7.84,0,0,1,5.23-4.38,7.75,7.75,0,0,1,7,1.5,1,1,0,0,1-1.3,1.52,5.73,5.73,0,0,0-5.17-1.08,5.83,5.83,0,0,0-3.91,3.24A1,1,0,0,1,48.59,60.19Z"/><path class="cls-1" d="M64.82,76.77A14.38,14.38,0,0,1,53.1,71a1,1,0,0,1,1.63-1.17,12.36,12.36,0,0,0,10.23,5A12.49,12.49,0,0,0,74.77,70a1,1,0,0,1,1.59,1.22A14.53,14.53,0,0,1,65,76.77Z"/><path class="cls-1" d="M81,59.69a1,1,0,0,1-.89-.55,5.76,5.76,0,0,0-4.35-3,5.84,5.84,0,0,0-4.86,1.46,1,1,0,1,1-1.38-1.44,8,8,0,0,1,12.37,2.09,1,1,0,0,1-.44,1.34A1,1,0,0,1,81,59.69Z"/><path class="cls-1" d="M77.48,72.92a.75.75,0,0,1-.75-.65,2.46,2.46,0,0,0-3.38-1.86A.75.75,0,0,1,72.73,69a4,4,0,0,1,5.49,3,.75.75,0,0,1-.64.84Z"/><path class="cls-1" d="M52.08,72.71H52a.75.75,0,0,1-.64-.85,4,4,0,0,1,5.49-3,.75.75,0,1,1-.63,1.37,2.38,2.38,0,0,0-2.18.15,2.41,2.41,0,0,0-1.19,1.72A.76.76,0,0,1,52.08,72.71Z"/><path class="cls-1" d="M64.74,89.49A25.94,25.94,0,1,1,90.68,63.55,26,26,0,0,1,64.74,89.49Zm0-49.87A23.94,23.94,0,1,0,88.68,63.55,24,24,0,0,0,64.74,39.62Z"/><path class="cls-1" d="M64.71,67a3.35,3.35,0,0,1-3-1.88,1,1,0,0,1,1.8-.88A1.37,1.37,0,0,0,66,64.19a1,1,0,0,1,1.85.78A3.36,3.36,0,0,1,64.71,67Z"/></svg>